<?xml version="1.0" standalone="no"?>
<!DOCTYPE svg PUBLIC "-//W3C//DTD SVG 20010904//EN"
 "http://www.w3.org/TR/2001/REC-SVG-20010904/DTD/svg10.dtd">
<svg version="1.0" xmlns="http://www.w3.org/2000/svg"
 width="512.000000pt" height="512.000000pt" viewBox="0 0 512.000000 512.000000"
 preserveAspectRatio="xMidYMid meet">

<g transform="translate(0.000000,512.000000) scale(0.100000,-0.100000)"
fill="#000000" stroke="none">
<path d="M480 4240 l0 -400 400 0 400 0 0 -1440 0 -1440 80 0 80 0 0 -80 0
-80 80 0 80 0 0 -80 0 -80 80 0 80 0 0 -80 0 -80 1200 0 1200 0 0 80 0 80 80
0 80 0 0 80 0 80 80 0 80 0 0 80 0 80 80 0 80 0 0 560 0 560 -80 0 -80 0 0 80
0 80 -80 0 -80 0 0 80 0 80 -80 0 -80 0 0 80 0 80 -400 0 -400 0 0 240 0 240
560 0 560 0 0 80 0 80 80 0 80 0 0 240 0 240 -80 0 -80 0 0 80 0 80 -720 0
-720 0 0 -80 0 -80 -80 0 -80 0 0 -80 0 -80 -80 0 -80 0 0 -80 0 -80 -80 0
-80 0 0 -560 0 -560 80 0 80 0 0 -80 0 -80 80 0 80 0 0 -80 0 -80 80 0 80 0 0
-80 0 -80 400 0 400 0 0 -240 0 -240 -880 0 -880 0 0 1280 0 1280 400 0 400 0
0 400 0 400 -1200 0 -1200 0 0 -400z m2240 0 l0 -240 -400 0 -400 0 0 -1440 0
-1440 960 0 960 0 0 80 0 80 80 0 80 0 0 240 0 240 -80 0 -80 0 0 80 0 80
-400 0 -400 0 0 80 0 80 -80 0 -80 0 0 80 0 80 -80 0 -80 0 0 560 0 560 80 0
80 0 0 80 0 80 80 0 80 0 0 80 0 80 720 0 720 0 0 -240 0 -240 -560 0 -560 0
0 -80 0 -80 -80 0 -80 0 0 -240 0 -240 80 0 80 0 0 -80 0 -80 400 0 400 0 0
-80 0 -80 80 0 80 0 0 -80 0 -80 80 0 80 0 0 -560 0 -560 -80 0 -80 0 0 -80 0
-80 -80 0 -80 0 0 -80 0 -80 -1200 0 -1200 0 0 80 0 80 -80 0 -80 0 0 80 0 80
-80 0 -80 0 0 1520 0 1520 -400 0 -400 0 0 240 0 240 1040 0 1040 0 0 -240z"/>
</g>
</svg>
